<svg width="171" height="171" viewBox="0 0 171 171" fill="none" xmlns="http://www.w3.org/2000/svg">
<path d="M85.5 0C62.9031 0 41.2325 8.97643 25.2545 24.9551C9.27582 40.9325 0.299393 62.6044 0.299393 85.2006C0.299393 107.797 9.27582 129.468 25.2545 145.446C41.2319 161.425 62.9038 170.401 85.5 170.401C108.096 170.401 129.768 161.425 145.746 145.446C161.724 129.469 170.701 107.797 170.701 85.2006C170.701 70.2456 166.764 55.5528 159.286 42.6006C151.808 29.6484 141.053 18.8937 128.1 11.4144C115.148 3.93685 100.455 0 85.5 0ZM112.778 87.5065L71.5348 111.318C70.7111 111.794 69.696 111.794 68.8723 111.318C68.0486 110.843 67.5411 109.963 67.5411 109.012V61.3884C67.5411 60.4375 68.0486 59.5579 68.8723 59.0825C69.696 58.6059 70.7111 58.6059 71.5348 59.0825L112.778 82.8953V82.8941C113.601 83.3695 114.109 84.2491 114.109 85.2C114.109 86.1509 113.601 87.0305 112.778 87.5059V87.5065Z" fill="white"/>
</svg>
